<svg width="1281" height="466" viewBox="0 0 1281 466" fill="none" xmlns="http://www.w3.org/2000/svg">
<g clip-path="url(#clip0_13_38)">
<path d="M1148.32 327.541C1144.09 327.541 1140.3 328.312 1136.89 329.789C1133.49 331.266 1130.6 333.384 1128.23 336.08C1125.79 338.712 1123.99 341.923 1122.71 345.646C1121.42 349.306 1120.78 353.349 1120.78 357.715C1120.78 362.08 1121.42 366.061 1122.77 369.721C1124.12 373.38 1126.11 376.526 1128.74 379.223C1131.37 381.855 1134.65 383.909 1138.5 385.387C1142.35 386.863 1146.72 387.633 1151.66 387.633C1158.27 387.633 1164.05 386.8 1169.06 385.002L1167.39 375.756C1165.21 376.59 1162.83 377.17 1160.26 377.555C1157.7 377.941 1155.19 378.197 1152.75 378.197C1147.17 378.197 1142.61 376.719 1139.01 373.766C1135.48 370.812 1133.49 366.641 1132.98 361.184L1173.3 361.182V355.854C1173.3 351.552 1172.77 347.701 1171.76 344.17C1170.66 340.639 1169.12 337.686 1167.01 335.246C1164.89 332.806 1162.25 330.879 1159.17 329.531C1156.09 328.248 1152.5 327.541 1148.32 327.541ZM1148.32 336.465C1152.5 336.465 1155.77 337.878 1158.21 340.703C1160.66 343.464 1161.74 347.188 1161.74 351.811V352.066H1132.98C1133.56 347.38 1135.1 343.657 1137.73 340.768C1140.43 337.942 1143.96 336.465 1148.32 336.465Z" fill="white"/>
<path d="M889.658 327.541C886.641 327.541 883.368 327.926 879.836 328.633C876.242 329.338 873.48 330.11 871.49 330.945L874.057 340.19C876.497 339.162 879.064 338.391 881.697 337.814C884.394 337.3 886.705 337.043 888.76 337.043C893.381 337.043 896.722 338.07 898.904 340.061C901.094 342.115 902.178 345.068 902.178 348.92L902.182 350.203C897.302 350.203 892.617 350.462 888.25 350.975C883.885 351.488 879.967 352.452 876.629 353.863C873.227 355.276 870.53 357.266 868.603 359.898C866.62 362.467 865.65 365.87 865.65 369.979C865.65 373.189 866.234 375.948 867.385 378.195C868.54 380.442 870.081 382.241 871.941 383.652C873.868 385.065 875.987 386.092 878.363 386.734C880.738 387.313 883.112 387.633 885.617 387.633C889.854 387.633 893.449 386.8 896.402 385.066C899.42 383.397 901.601 381.214 903.08 378.518H903.344C903.474 379.801 903.655 381.213 903.852 382.625C904.115 384.102 904.312 385.322 904.625 386.35H915.668C915.274 384.488 915.059 382.305 914.895 379.93C914.796 377.49 914.633 375.306 914.633 373.252V348.92C914.633 341.858 912.515 336.531 908.342 332.936C904.105 329.34 897.876 327.541 889.658 327.541ZM899.803 358.486H902.182V362.916C902.182 364.97 901.92 366.896 901.344 368.758C900.765 370.62 899.863 372.289 898.647 373.701C897.427 375.178 895.887 376.333 893.961 377.168C892.035 378.067 889.788 378.516 887.219 378.516C884.073 378.516 881.638 377.681 880.027 376.012C878.424 374.407 877.652 372.225 877.652 369.465C877.652 367.218 878.235 365.355 879.451 363.943C880.671 362.531 882.274 361.438 884.328 360.604C886.318 359.769 888.695 359.192 891.391 358.871C894.088 358.618 896.913 358.486 899.803 358.486Z" fill="white"/>
<path d="M750.606 327.541C746.369 327.541 742.58 328.312 739.178 329.789C735.84 331.266 732.951 333.384 730.512 336.08C728.135 338.712 726.272 341.923 724.99 345.646C723.705 349.306 723.065 353.349 723.065 357.715C723.065 362.08 723.77 366.061 725.117 369.721C726.467 373.38 728.459 376.526 731.09 379.223C733.659 381.855 736.933 383.909 740.785 385.387C744.636 386.863 749.066 387.633 754.01 387.633C760.558 387.633 766.336 386.798 771.342 385L769.733 375.756C767.55 376.591 765.173 377.17 762.606 377.555C759.973 377.941 757.469 378.197 755.094 378.197C749.507 378.197 744.888 376.719 741.356 373.766C737.761 370.812 735.764 366.641 735.32 361.184L775.651 361.182V355.854C775.651 351.552 775.058 347.701 774.039 344.17C772.948 340.639 771.409 337.686 769.289 335.246C767.171 332.806 764.603 330.879 761.457 329.531C758.376 328.248 754.779 327.541 750.606 327.541ZM750.598 336.465C754.771 336.465 758.046 337.878 760.485 340.703C762.93 343.464 764.016 347.188 764.016 351.811V352.066H735.319C735.833 347.38 737.372 343.657 740.069 340.768C742.702 337.942 746.233 336.465 750.598 336.465Z" fill="white"/>
<path d="M1057.22 212.879C1052.99 212.879 1049.2 213.651 1045.8 215.127C1042.39 216.604 1039.5 218.721 1037.13 221.418C1034.69 224.05 1032.89 227.261 1031.61 230.984C1030.32 234.644 1029.68 238.687 1029.68 243.053C1029.68 247.418 1030.32 251.399 1031.67 255.059C1033.02 258.718 1035.01 261.864 1037.64 264.561C1040.27 267.193 1043.55 269.247 1047.4 270.725C1051.25 272.265 1055.62 272.971 1060.56 272.971C1067.17 272.971 1072.95 272.135 1077.96 270.338L1076.29 261.094C1074.11 261.928 1071.8 262.506 1069.16 262.891C1066.6 263.277 1064.09 263.533 1061.65 263.533C1056.07 263.533 1051.51 262.057 1047.91 259.103C1044.38 256.15 1042.39 251.979 1041.88 246.522L1082.2 246.52V241.191C1082.2 236.89 1081.68 233.039 1080.66 229.508C1079.56 225.977 1078.02 223.024 1075.9 220.584C1073.79 218.144 1071.15 216.217 1068.07 214.869C1064.99 213.586 1061.4 212.879 1057.22 212.879ZM1057.22 221.803C1061.4 221.803 1064.67 223.216 1067.11 226.041C1069.55 228.802 1070.64 232.526 1070.64 237.148V237.404H1041.88C1042.46 232.718 1044 228.994 1046.69 226.106C1049.32 223.282 1052.86 221.803 1057.22 221.803Z" fill="white"/>
<path d="M815.186 212.881C812.168 212.881 808.893 213.264 805.299 213.971C801.767 214.676 799.006 215.448 797.016 216.283L799.522 225.527C802.025 224.499 804.593 223.731 807.225 223.152C809.922 222.638 812.233 222.381 814.287 222.381C818.846 222.381 822.247 223.408 824.43 225.398C826.619 227.453 827.703 230.406 827.703 234.258L827.711 235.543C822.769 235.543 818.146 235.8 813.781 236.312C809.35 236.826 805.499 237.789 802.096 239.201C798.758 240.614 796.061 242.604 794.07 245.236C792.087 247.804 791.117 251.208 791.117 255.316C791.117 258.526 791.699 261.286 792.849 263.533C794.07 265.78 795.546 267.578 797.473 268.99C799.335 270.403 801.517 271.43 803.828 272.072C806.203 272.651 808.643 272.973 811.146 272.973C815.319 272.973 818.916 272.138 821.934 270.404C824.951 268.735 827.13 266.552 828.609 263.855H828.807C829.004 265.139 829.12 266.553 829.383 267.965C829.58 269.441 829.827 270.66 830.09 271.688H841.195C840.799 269.761 840.553 267.643 840.355 265.268C840.158 262.828 840.158 260.646 840.158 258.592V234.26C840.158 227.198 838.04 221.869 833.867 218.273C829.63 214.678 823.403 212.881 815.186 212.881ZM825.33 243.824H827.709V248.254C827.709 250.308 827.446 252.234 826.871 254.096C826.293 255.957 825.39 257.627 824.174 259.039C822.955 260.516 821.413 261.671 819.486 262.506C817.56 263.403 815.314 263.855 812.746 263.855C809.536 263.855 807.168 263.021 805.557 261.352C803.954 259.747 803.116 257.563 803.116 254.803C803.116 252.556 803.76 250.693 804.977 249.281C806.132 247.933 807.803 246.778 809.793 245.943C811.848 245.109 814.223 244.53 816.92 244.209C819.616 243.956 822.377 243.824 825.33 243.824Z" fill="white"/>
<path d="M720.362 212.879C716.125 212.879 712.336 213.651 708.934 215.127C705.53 216.604 702.642 218.721 700.266 221.418C697.827 224.05 696.028 227.261 694.746 230.984C693.46 234.644 692.819 238.687 692.819 243.053C692.819 247.418 693.463 251.399 694.811 255.059C696.158 258.718 698.148 261.864 700.781 264.561C703.413 267.193 706.688 269.247 710.539 270.725C714.392 272.265 718.756 272.971 723.699 272.971C730.313 272.971 736.09 272.135 741.098 270.338L739.428 261.094C737.245 261.928 734.872 262.506 732.303 262.891C729.736 263.277 727.232 263.533 724.791 263.533C719.206 263.533 714.648 262.057 711.053 259.103C707.521 256.15 705.461 251.979 705.018 246.522L745.34 246.52V241.191C745.34 236.89 744.814 233.039 743.795 229.508C742.704 225.977 741.162 223.024 739.043 220.584C736.925 218.144 734.293 216.217 731.211 214.869C728.129 213.586 724.535 212.879 720.362 212.879ZM720.362 221.803C724.535 221.803 727.809 223.216 730.248 226.041C732.695 228.802 733.78 232.526 733.78 237.148V237.404H705.018C705.595 232.718 707.137 228.994 709.77 226.106C712.465 223.282 715.996 221.803 720.362 221.803Z" fill="white"/>
<path d="M646.196 98.2168C641.829 98.2168 637.978 98.9242 634.51 100.336C631.044 101.684 628.09 103.61 625.715 106.178C623.21 108.746 621.347 111.891 620.065 115.615C618.781 119.339 618.074 123.513 618.074 128.199C618.074 132.886 618.783 137.124 620.065 140.783C621.348 144.507 623.21 147.653 625.715 150.285C628.09 152.853 631.044 154.908 634.51 156.256C637.978 157.604 641.829 158.309 646.196 158.309C650.497 158.309 654.35 157.604 657.817 156.256C661.283 154.908 664.171 152.853 666.676 150.285C669.051 147.653 670.978 144.507 672.26 140.783C673.61 137.124 674.25 132.886 674.25 128.199C674.25 123.513 673.608 119.339 672.26 115.615C670.977 111.891 669.051 108.683 666.676 106.115C664.171 103.547 661.283 101.619 657.817 100.271C654.35 98.9238 650.497 98.2168 646.196 98.2168ZM646.203 107.721C648.899 107.721 651.21 108.232 653.199 109.195C655.125 110.222 656.734 111.636 658.016 113.434C659.296 115.295 660.265 117.479 660.84 119.982C661.497 122.422 661.811 125.182 661.811 128.199H661.795C661.795 134.427 660.511 139.37 657.942 143.158C655.375 146.882 651.458 148.806 646.194 148.871C640.93 148.807 637.013 146.882 634.444 143.094C631.809 139.306 630.528 134.362 630.528 128.199C630.528 125.182 630.858 122.486 631.499 119.982C632.077 117.543 633.043 115.36 634.325 113.498C635.608 111.7 637.213 110.223 639.204 109.195C641.13 108.232 643.506 107.721 646.203 107.721Z" fill="white"/>
<path d="M465.627 232.813L232.814 0L0 232.813L232.814 465.627L465.627 232.813Z" fill="url(#paint0_linear_13_38)"/>
<path d="M245.618 245.618V57.0393L151.329 151.329L245.618 245.618Z" fill="url(#paint1_linear_13_38)"/>
<path d="M220.009 220.009V408.588L314.298 314.298L220.009 220.009Z" fill="url(#paint2_linear_13_38)"/>
<path d="M1196.92 328.89V336.915H1197.12C1198.73 333.962 1201.16 331.651 1204.31 329.981C1207.52 328.377 1211.05 327.542 1214.97 327.542C1221.32 327.542 1226.46 329.468 1230.25 333.192C1234.03 336.98 1235.9 342.051 1235.9 348.471V386.35H1223.44V353.158C1223.44 350.654 1223.25 348.407 1222.93 346.353C1222.55 344.362 1221.91 342.629 1220.94 341.281C1219.97 339.869 1218.76 338.841 1217.22 338.135C1215.74 337.364 1213.75 337.044 1211.38 337.044C1209.58 337.044 1207.91 337.364 1206.18 338.007C1204.57 338.649 1203.03 339.676 1201.75 341.024C1200.4 342.436 1199.31 344.234 1198.54 346.417C1197.7 348.664 1197.25 351.361 1197.25 354.571V386.35H1184.8V328.89L1196.92 328.89Z" fill="white"/>
<path d="M1036.42 328.89V337.107H1036.68C1038.16 334.09 1040.41 331.715 1043.55 330.045C1046.7 328.376 1050.04 327.542 1053.63 327.542C1062.17 327.542 1067.82 330.687 1070.65 336.915H1070.96C1073.01 333.576 1075.65 331.201 1078.79 329.66C1081.94 328.184 1085.34 327.477 1089 327.542C1092.47 327.542 1095.55 328.055 1098.18 329.082C1100.81 330.109 1103 331.521 1104.67 333.383C1106.4 335.245 1107.68 337.428 1108.52 339.996C1109.36 342.499 1109.73 345.324 1109.73 348.47V386.349H1097.28V353.157C1097.28 350.268 1097.11 347.892 1096.9 346.159C1096.59 344.426 1096 342.82 1095.17 341.408C1094.33 339.931 1093.18 338.84 1091.64 338.134C1090.22 337.363 1088.3 337.043 1086.05 337.043C1084.51 337.043 1082.97 337.299 1081.43 337.877C1079.95 338.39 1078.6 339.225 1077.38 340.317C1076.3 341.473 1075.33 342.949 1074.56 344.811C1073.85 346.673 1073.48 348.792 1073.48 351.295V386.349H1061.02V352.515C1061.02 350.076 1060.85 347.893 1060.64 346.031C1060.31 344.105 1059.8 342.436 1058.97 341.088C1058.13 339.74 1057.05 338.776 1055.5 338.07C1054.02 337.363 1052.17 337.043 1049.92 337.043C1048.25 337.043 1046.58 337.363 1044.98 338.006C1043.36 338.648 1042.02 339.61 1040.87 340.895C1039.65 342.179 1038.75 343.848 1037.98 346.031C1037.2 348.149 1036.83 350.782 1036.83 353.863V386.349H1024.37V328.889L1036.42 328.89Z" fill="white"/>
<path d="M971.385 328.89V336.915H971.583C973.193 333.962 975.563 331.651 978.773 329.981C981.985 328.377 985.515 327.542 989.367 327.542C995.787 327.542 1000.92 329.468 1004.65 333.191C1008.5 336.979 1010.36 342.051 1010.36 348.471V386.349H997.906V353.158C997.906 350.654 997.709 348.407 997.397 346.353C997.002 344.362 996.378 342.629 995.407 341.281C994.438 339.869 993.222 338.841 991.682 338.135C990.137 337.364 988.152 337.044 985.775 337.044C984.043 337.044 982.309 337.364 980.639 338.007C978.971 338.649 977.493 339.676 976.21 341.024C974.862 342.436 973.771 344.234 972.936 346.417C972.097 348.664 971.72 351.36 971.72 354.57V386.35H959.263V328.89L971.385 328.89Z" fill="white"/>
<path d="M942.758 318.425H929.983V306.869H942.758V318.425Z" fill="white"/>
<path d="M942.495 386.349H930.041V328.826H942.495V386.349Z" fill="white"/>
<path d="M823.467 328.89H833.034V313.931H845.553V328.89H858.2V338.327H845.553V368.373C845.553 370.299 845.553 371.904 845.75 373.124C845.915 374.28 846.193 375.243 846.719 375.885C847.229 376.527 847.935 376.976 848.774 377.168C849.678 377.425 850.892 377.553 852.432 377.553C853.517 377.553 854.487 377.488 855.386 377.421C856.356 377.356 857.248 377.229 858.083 377.101V386.346C856.866 386.477 855.386 386.602 853.717 386.73C852.047 386.923 850.378 386.987 848.71 386.987C845.372 386.987 842.675 386.602 840.62 385.895C838.566 385.189 836.96 384.098 835.869 382.685C834.784 381.274 834.007 379.54 833.622 377.549C833.293 375.559 833.048 373.248 833.048 370.68V338.323H823.48L823.467 328.89Z" fill="white"/>
<path d="M818.075 337.429C816.859 337.172 815.314 337.044 813.388 337.044C811.719 336.979 809.985 337.236 808.187 337.943C806.327 338.65 804.785 339.741 803.566 341.153C802.35 342.63 801.319 344.556 800.612 347.06C799.905 349.499 799.527 352.388 799.527 355.662V386.35H787.073V328.891H799.207V336.466H799.404C802.036 330.496 807.107 327.542 814.49 327.542C815.065 327.542 815.706 327.543 816.481 327.608C817.188 327.673 817.894 327.673 818.665 327.8L818.075 337.429Z" fill="white"/>
<path d="M680.813 328.89H690.445V313.931H702.899V328.89H715.546V338.327H702.899V368.373C702.899 370.299 702.899 371.904 703.097 373.124C703.261 374.279 703.54 375.243 704.067 375.885C704.576 376.527 705.283 376.976 706.185 377.168C707.024 377.424 708.24 377.553 709.781 377.553C710.866 377.553 711.836 377.488 712.733 377.421C713.703 377.356 714.595 377.229 715.43 377.101V386.346C714.214 386.477 712.733 386.602 711.065 386.73C709.395 386.923 707.727 386.987 706.057 386.987C702.719 386.987 700.022 386.602 697.968 385.895C695.913 385.189 694.308 384.098 693.216 382.685C692.066 381.274 691.356 379.539 690.97 377.549C690.657 375.559 690.461 373.248 690.461 370.68V338.323H680.83L680.813 328.89Z" fill="white"/>
<path d="M632.407 328.89V336.915H632.604C634.215 333.962 636.649 331.65 639.858 329.981C643.07 328.377 646.6 327.542 650.453 327.542C656.872 327.542 661.944 329.467 665.733 333.191C669.519 336.979 671.446 342.051 671.446 348.471V386.349H658.991V353.158C658.991 350.654 658.794 348.407 658.415 346.352C658.02 344.362 657.396 342.629 656.425 341.28C655.52 339.869 654.24 338.841 652.764 338.135C651.22 337.364 649.234 337.043 646.858 337.043C645.061 337.043 643.391 337.364 641.721 338.006C640.053 338.649 638.512 339.676 637.228 341.024C635.88 342.436 634.853 344.234 634.018 346.417C633.18 348.664 632.737 351.36 632.737 354.57V386.349H620.28V328.89L632.407 328.89Z" fill="white"/>
<path d="M560.952 308.603H605.891V318.939H573.727V341.281H603.388V351.745H573.727V376.013H606.855V386.349H560.952V308.603Z" fill="white"/>
<path d="M997.58 260.709H997.777L1013.06 214.228H1026.28L1004.71 271.687H990.137L968.759 214.228H982.305L997.58 260.709Z" fill="white"/>
<path d="M960.028 203.763H947.253V192.207H960.028V203.763Z" fill="white"/>
<path d="M959.765 271.687H947.311V214.228H959.765V271.687Z" fill="white"/>
<path d="M901.086 214.164H910.716V199.269H923.171V214.164H935.819V223.665H923.171V253.711C923.171 255.637 923.171 257.242 923.434 258.462C923.598 259.617 923.877 260.581 924.403 261.223C924.911 261.865 925.553 262.314 926.457 262.506C927.362 262.763 928.577 262.891 930.117 262.891C931.136 262.891 932.172 262.826 933.071 262.76C933.974 262.694 934.869 262.567 935.768 262.439V271.684C934.486 271.816 933.071 271.941 931.401 272.069C929.733 272.261 928.063 272.325 926.329 272.325C922.991 272.325 920.294 271.94 918.305 271.234C916.251 270.527 914.645 269.436 913.554 268.024C912.403 266.612 911.691 264.878 911.307 262.888C910.912 260.897 910.732 258.586 910.732 256.018V223.661H901.103L901.086 214.164Z" fill="white"/>
<path d="M892.29 224.436C890.68 223.729 888.952 223.216 887.154 222.83C885.292 222.51 883.624 222.381 882.018 222.381C879.001 222.381 876.369 222.894 874.123 223.987C871.81 225.079 869.884 226.555 868.344 228.417C866.799 230.279 865.647 232.462 864.878 234.965C864.039 237.533 863.662 240.23 863.662 243.055C863.662 245.879 864.056 248.512 864.878 251.016C865.65 253.455 866.802 255.638 868.344 257.5C869.889 259.426 871.874 260.902 874.251 261.93C876.69 263.021 879.323 263.535 882.21 263.535C884.008 263.535 885.806 263.343 887.476 263.085C889.145 262.764 890.878 262.25 892.612 261.416L894.667 270.789C892.483 271.624 890.3 272.137 888.117 272.522C885.935 272.843 883.688 272.971 881.441 272.971C876.498 272.971 872.132 272.2 868.28 270.66C864.492 269.184 861.282 267.065 858.779 264.368C856.274 261.672 854.348 258.526 853.128 254.931C851.846 251.271 851.202 247.355 851.202 243.054C851.202 238.624 851.908 234.579 853.256 230.92C854.67 227.26 856.66 224.115 859.227 221.418C861.796 218.786 865.006 216.732 868.664 215.191C872.389 213.651 876.626 212.879 881.377 212.879C886.513 212.879 890.943 213.586 894.667 214.934L892.29 224.436Z" fill="white"/>
<path d="M787.837 222.83C786.621 222.51 785.012 222.382 783.15 222.382C781.48 222.317 779.747 222.574 777.949 223.281C776.087 223.988 774.548 225.079 773.326 226.491C772.11 227.967 771.08 229.894 770.375 232.397C769.668 234.837 769.29 237.726 769.29 241V271.688H756.835V214.229H768.969V221.804H769.166C771.799 215.834 776.807 212.88 784.254 212.88C784.828 212.88 785.47 212.88 786.244 212.945C786.95 213.01 787.658 213.01 788.427 213.138L787.837 222.83Z" fill="white"/>
<path d="M650.511 214.164H660.141V199.27H672.596V214.164H685.244V223.666H672.596V253.712C672.596 255.638 672.596 257.243 672.859 258.462C673.023 259.618 673.302 260.581 673.829 261.223C674.338 261.865 675.045 262.314 675.883 262.507C676.788 262.763 678.002 262.891 679.542 262.891C680.561 262.891 681.596 262.826 682.495 262.76C683.399 262.695 684.293 262.568 685.192 262.44V271.685C683.976 271.816 682.495 271.941 680.825 272.069C679.157 272.262 677.487 272.326 675.753 272.326C672.415 272.326 669.72 271.941 667.73 271.234C665.675 270.527 664.07 269.436 662.978 268.024C661.828 266.612 661.116 264.878 660.732 262.888C660.353 260.898 660.157 258.586 660.157 256.018V223.661H650.528L650.511 214.164Z" fill="white"/>
<path d="M602.169 214.164V222.253H602.366C603.977 219.3 606.411 216.989 609.556 215.32C612.766 213.716 616.298 212.88 620.213 212.88C626.57 212.88 631.706 214.806 635.493 218.53C639.281 222.317 641.143 227.389 641.143 233.809V271.688H628.689V238.496C628.689 235.992 628.491 233.745 628.18 231.691C627.801 229.701 627.161 227.967 626.19 226.619C625.219 225.207 624.007 224.179 622.467 223.473C620.988 222.702 618.999 222.382 616.56 222.382C614.826 222.382 613.156 222.702 611.424 223.345C609.754 223.988 608.278 225.014 606.993 226.363C605.645 227.774 604.554 229.572 603.783 231.755C602.946 234.002 602.501 236.699 602.501 239.909V271.688H590.047V214.164L602.169 214.164Z" fill="white"/>
<path d="M560.952 193.941H573.727V271.688H560.952V193.941Z" fill="white"/>
<path d="M773.648 141.874H773.911L789.255 99.5017H802.353L771.022 178.212H757.925L767.234 155.806L744.571 99.5017H758.183L773.648 141.874Z" fill="white"/>
<path d="M698.084 99.5659V107.591H698.281C699.892 104.638 702.326 102.327 705.471 100.657C708.681 99.0516 712.213 98.2178 716.13 98.2178C722.485 98.2178 727.621 100.144 731.346 103.867C735.196 107.655 737.059 112.727 737.059 119.147V157.026H724.604V123.834C724.604 121.33 724.407 119.083 724.094 117.029C723.715 115.038 723.075 113.305 722.105 111.957C721.135 110.545 719.921 109.517 718.381 108.811C716.836 108.04 714.914 107.72 712.474 107.72C710.74 107.72 709.007 108.04 707.338 108.683C705.67 109.325 704.192 110.352 702.844 111.7C701.562 113.112 700.468 114.91 699.635 117.093C698.796 119.34 698.418 122.036 698.418 125.246V157.026H685.964V99.5661L698.084 99.5659Z" fill="white"/>
<path d="M601.27 91.348C598.508 90.3849 595.683 89.6146 592.795 89.101C589.97 88.5882 587.145 88.3301 584.384 88.3301C582.588 88.3301 580.854 88.5225 579.12 88.8429C577.387 89.2276 575.846 89.806 574.562 90.5764C573.28 91.3472 572.251 92.3739 571.48 93.7221C570.643 95.0698 570.264 96.6112 570.264 98.473C570.264 99.9489 570.527 101.298 571.102 102.453C571.61 103.609 572.515 104.765 573.733 105.792C575.015 106.883 576.622 107.846 578.549 108.874C580.539 109.901 582.914 110.992 585.803 112.148C589.141 113.431 592.159 114.844 594.92 116.385C597.615 117.861 599.992 119.531 601.918 121.393C603.843 123.254 605.256 125.309 606.283 127.748C607.254 130.124 607.762 132.949 607.762 136.094C607.762 139.882 606.991 143.221 605.516 146.046C603.971 148.87 601.921 151.182 599.353 152.979C596.72 154.777 593.704 156.125 590.428 157.024C587.09 157.859 583.688 158.308 580.22 158.308C576.69 158.308 572.901 157.987 568.728 157.28C564.62 156.573 560.639 155.483 556.852 153.942L559.484 143.413C563.016 145.019 566.61 146.174 570.206 146.88C573.8 147.586 577.074 147.971 579.964 147.971C584.651 147.971 588.31 147.072 591.007 145.21C593.704 143.349 595.051 140.588 595.051 136.993C595.051 135.323 594.738 133.783 593.967 132.434C593.259 131.151 592.169 129.866 590.757 128.775C589.343 127.62 587.547 126.528 585.427 125.501C583.244 124.41 580.805 123.382 578.044 122.291C574.77 121.007 571.881 119.594 569.378 118.118C566.809 116.642 564.69 114.972 562.958 113.174C561.224 111.312 559.876 109.322 558.913 107.075C557.943 104.828 557.5 102.324 557.5 99.5637C557.5 95.9044 558.272 92.6943 559.812 89.9338C561.292 87.1732 563.343 84.9261 565.846 83.1284C568.35 81.395 571.176 80.0467 574.257 79.2122C577.339 78.3773 580.549 77.9927 583.951 77.9927C587.547 77.9927 591.077 78.2492 594.479 78.7635C597.883 79.2763 600.965 79.9831 603.788 81.0106L601.27 91.348Z" fill="white"/>
<path d="M1245.27 328.891H1254.9V313.932H1267.35V328.891H1280.06V338.329H1267.35V368.374C1267.35 370.3 1267.52 371.906 1267.61 373.125C1267.78 374.281 1268.06 375.244 1268.58 375.886C1269.09 376.529 1269.8 376.977 1270.64 377.169C1271.54 377.426 1272.76 377.554 1274.3 377.554C1275.32 377.554 1276.35 377.488 1277.25 377.423C1278.15 377.357 1279.05 377.23 1279.95 377.102V386.347C1278.73 386.478 1277.25 386.603 1275.58 386.731C1273.91 386.924 1272.24 386.988 1270.57 386.988C1267.17 386.988 1264.47 386.603 1262.48 385.896C1260.43 385.19 1258.82 384.099 1257.73 382.686C1256.58 381.275 1255.87 379.541 1255.49 377.55C1255.11 375.56 1254.91 373.249 1254.91 370.681V338.324H1245.28L1245.27 328.891Z" fill="white"/>
</g>
<defs>
<linearGradient id="paint0_linear_13_38" x1="-0.000166895" y1="232.813" x2="465.622" y2="232.813" gradientUnits="userSpaceOnUse">
<stop stop-color="#E7380D"/>
<stop offset="0.02" stop-color="#E7380D"/>
<stop offset="0.0751178" stop-color="#E8410C"/>
<stop offset="0.1651" stop-color="#EC590A"/>
<stop offset="0.2786" stop-color="#F18107"/>
<stop offset="0.41" stop-color="#F9B703"/>
<stop offset="0.5" stop-color="#FFE100"/>
<stop offset="0.59" stop-color="#F9B703"/>
<stop offset="0.7214" stop-color="#F18107"/>
<stop offset="0.8349" stop-color="#EC590A"/>
<stop offset="0.9249" stop-color="#E8410C"/>
<stop offset="0.98" stop-color="#E7380D"/>
<stop offset="1" stop-color="#E7380D"/>
</linearGradient>
<linearGradient id="paint1_linear_13_38" x1="277.664" y1="151.376" x2="153.337" y2="151.376" gradientUnits="userSpaceOnUse">
<stop offset="0.2" stop-color="#FFDD00"/>
<stop offset="0.2824" stop-color="#FDCA02"/>
<stop offset="0.4488" stop-color="#F79A05"/>
<stop offset="0.6813" stop-color="#EE4E0C"/>
<stop offset="0.9" stop-color="#E50012"/>
</linearGradient>
<linearGradient id="paint2_linear_13_38" x1="187.796" y1="314.293" x2="312.125" y2="314.293" gradientUnits="userSpaceOnUse">
<stop offset="0.2" stop-color="#FFDD00"/>
<stop offset="0.2824" stop-color="#FDCA02"/>
<stop offset="0.4488" stop-color="#F79A05"/>
<stop offset="0.6813" stop-color="#EE4E0C"/>
<stop offset="0.9" stop-color="#E50012"/>
</linearGradient>
<clipPath id="clip0_13_38">
<rect width="1280.06" height="465.627" fill="white"/>
</clipPath>
</defs>
</svg>
