<svg width="64" height="52" viewBox="0 0 64 52" fill="none" xmlns="http://www.w3.org/2000/svg">
<path d="M1.38232 37.9096C-1.01295 39.587 -0.56945 42.4768 4.89538 44.2838C10.3602 46.091 16.7121 46.4646 22.301 45.458C22.6204 45.458 22.1414 45.458 22.301 45.458V39.7548L16.8718 41.6C14.7958 42.271 12.7199 42.4388 10.644 41.9354C9.0472 41.4322 9.36656 40.4258 11.2828 39.587L22.301 35.5612V29.3548L6.9713 34.8904C5.05508 35.5612 3.13886 36.5678 1.38232 37.9096ZM38.4292 12.7484V29.0194C44.9762 32.3742 50.0862 29.0194 50.0862 20.2968C50.0862 11.4065 47.0522 7.38064 38.2696 4.19354C33.6386 2.51612 28.8482 1.00646 24.0576 0V48.4774L35.2356 52V11.2387C35.2356 9.39354 35.2356 8.05162 36.513 8.55484C38.2696 9.05806 38.4292 10.9032 38.4292 12.7484ZM59.1882 34.0516C54.5574 32.3742 49.6072 31.7032 44.8166 32.2064C42.1558 32.3812 39.6588 33.1738 37.1518 34.0516V40.5936L47.5312 36.5678C49.6072 35.8968 51.683 35.729 53.759 36.2322C55.3558 36.7354 55.0364 37.742 53.1202 38.5806L37.1518 44.787V51.1612L59.1882 42.6064C60.785 41.9354 62.2222 41.0968 63.4998 39.7548C64.6176 38.0774 64.1384 35.729 59.1882 34.0516Z" fill="#0070D1"/>
</svg>
